PathFileType	4	(X/Y/Z)	7_coords_data.trc
DataRate	CameraRate	NumFrames	NumMarkers	Units	OrigDataRate	OrigDataStartFrame	OrigNumFrames
30.0	30.0	9	21	m	30.0	29	56
Frame#	Time	THUMB_TIP	THUMB_IP	THUMB_MCP	THUMB_CMC	INDEX_TIP	INDEX_DIP	INDEX_PIP	INDEX_MCP	MIDDLE_TIP	MIDDLE_DIP	MIDDLE_PIP	MIDDLE_MCP	RING_TIP	RING_DIP	RING_PIP	RING_MCP	PINKY_TIP	PINKY_DIP	PINKY_PIP	PINKY_MCP	WRIST
X1	Y1	Z1	X2	Y2	Z2	X3	Y3	Z3	X4	Y4	Z4	X5	Y5	Z5	X6	Y6	Z6	X7	Y7	Z7	X8	Y8	Z8	X9	Y9	Z9	X10	Y10	Z10	X11	Y11	Z11	X12	Y12	Z12	X13	Y13	Z13	X14	Y14	Z14	X15	Y15	Z15	X16	Y16	Z16	X17	Y17	Z17	X18	Y18	Z18	X19	Y19	Z19	X20	Y20	Z20	X21	Y21	Z21
28	0.9333333333333333	-0.04568669891357422	-0.08570690155029297	0.9987550048828125	-0.04897060012817383	-0.06560449981689453	1.0154600219726562	-0.060613998413085936	-0.04853870010375977	1.0361199951171876	-0.060673999786376956	-0.018266700744628907	1.0529200439453126	-0.021618999481201173	-0.031825000762939454	0.9215770263671875	-0.03552109909057617	-0.02870009994506836	0.9387520141601563	-0.04752270126342773	-0.02584079933166504	0.9583660278320313	-0.05628549957275391	-0.021768499374389648	0.9942379760742187	-0.019245100021362305	0.012305999755859375	0.9066699829101562	-0.02929669952392578	0.00949232006072998	0.929239013671875	-0.04107619857788086	0.006046770095825195	0.9546259765625	-0.051133098602294924	0.000811994016170501	0.9910969848632812	-0.010184100151062012	0.029740900039672852	0.9247160034179688	-0.020921499252319335	0.027937299728393556	0.945656005859375	-0.03205780029296875	0.025396799087524412	0.9681649780273438	-0.04169729995727539	0.01840970039367676	0.998625	0.001513790011405944	0.06161399841308594	0.9698829956054688	-0.009452580451965332	0.05309149932861328	0.9832739868164062	-0.019087400436401367	0.04518780136108398	0.9949099731445312	-0.03290019989013672	0.03163249969482422	1.01227001953125	-0.07466339874267579	0.011749099731445313	1.0657099609375
29	0.9666666666666667	-0.04564860153198242	-0.08526909637451172	0.998219970703125	-0.048964599609375	-0.06525630187988281	1.0150599975585937	-0.06054520034790039	-0.04821289825439453	1.0358299560546875	-0.06054740142822266	-0.018003599166870117	1.0526199951171875	-0.021327999114990233	-0.03127300071716309	0.921333984375	-0.03531280136108399	-0.028161399841308592	0.9384639892578125	-0.04739130020141601	-0.025341699600219727	0.9580330200195313	-0.05609329986572266	-0.02128310012817383	0.9938560180664062	-0.018717899322509765	0.012834199905395508	0.9065349731445312	-0.028922300338745117	0.01001609992980957	0.9291300048828125	-0.04080540084838867	0.006581779956817627	0.9544450073242188	-0.0509453010559082	0.001263370037078857	0.990760009765625	-0.009794389724731446	0.030259300231933593	0.9245819702148438	-0.02055419921875	0.028415199279785155	0.945489013671875	-0.0317273998260498	0.025819400787353515	0.9679749755859375	-0.0414468994140625	0.018805599212646483	0.9983590087890625	0.001888120055198669	0.061884498596191405	0.96977099609375	-0.009068690299987792	0.0534031982421875	0.9830789794921875	-0.01876059913635254	0.04550690078735352	0.9946920166015625	-0.03257770156860352	0.03198600006103516	1.0120599975585938	-0.07449079895019531	0.0120246000289917	1.0654300537109376
30	1.0	-0.045393299102783204	-0.08509719848632813	0.9980260009765625	-0.04876419830322266	-0.065095703125	1.0147999877929688	-0.06045299911499023	-0.04804339981079102	1.0356300048828124	-0.060397701263427736	-0.01783049964904785	1.0524000244140626	-0.02121269989013672	-0.031127599716186522	0.9212119750976563	-0.03519169998168945	-0.02802799987792969	0.9382620239257813	-0.04731100082397461	-0.025243499755859374	0.95772998046875	-0.056063701629638675	-0.021163000106811523	0.9937999877929687	-0.018614900588989257	0.012946999549865723	0.9063469848632812	-0.02887089920043945	0.01014799976348877	0.9288989868164063	-0.040788600921630856	0.006710999965667724	0.9541740112304687	-0.05093719863891601	0.0014000400304794312	0.9905759887695312	-0.0098368501663208	0.03040640068054199	0.9243079833984374	-0.02057539939880371	0.02855820083618164	0.9452379760742188	-0.031771499633789065	0.025989200592041014	0.9677100219726562	-0.041457901000976564	0.01895859909057617	0.9981929931640625	0.0018923000097274781	0.0620708999633789	0.9694990234375	-0.009054010391235351	0.05360279846191406	0.982864013671875	-0.01870859909057617	0.045707698822021484	0.9944619750976562	-0.03255059814453125	0.03215430068969727	1.0118699951171874	-0.07433090209960938	0.012162699699401855	1.06527001953125
31	1.0333333333333334	-0.04550920104980469	-0.08522219848632813	0.9978560180664062	-0.0488286018371582	-0.06521160125732423	1.0146500244140626	-0.06045399856567383	-0.04810979843139648	1.0354200439453125	-0.060361198425292965	-0.01788369941711426	1.0521600341796875	-0.020990999221801757	-0.031295999526977536	0.9211069946289062	-0.035031700134277345	-0.028153600692749022	0.938114990234375	-0.0471615982055664	-0.025307300567626954	0.957625	-0.05598130035400391	-0.021206100463867186	0.993510009765625	-0.01822949981689453	0.012677399635314942	0.9062260131835937	-0.028590999603271484	0.009943790435791015	0.9287529907226563	-0.04057939910888672	0.00655279016494751	0.954030029296875	-0.05078710174560547	0.001334679961204528	0.9903629760742187	-0.009654990196228027	0.030317800521850586	0.9241119995117187	-0.02040460014343262	0.028497299194335936	0.945051025390625	-0.03161829948425293	0.025920900344848632	0.9675380249023438	-0.041320701599121094	0.018916799545288087	0.997947021484375	0.001964450001716613	0.062234100341796876	0.9693770141601562	-0.00892356014251709	0.053669200897216794	0.9827579956054687	-0.01854170036315918	0.045709701538085935	0.9943419799804688	-0.0324213981628418	0.03208290100097656	1.0116799926757813	-0.07421800231933594	0.012147000312805176	1.06497998046875
32	1.0666666666666667	-0.04548609924316406	-0.08536190032958985	0.9977319946289063	-0.048843399047851566	-0.06532589721679688	1.014469970703125	-0.06044499969482422	-0.04824179840087891	1.035260009765625	-0.060298500061035154	-0.017979299545288086	1.052010009765625	-0.020482200622558594	-0.031482000350952145	0.9211099853515625	-0.03460900115966797	-0.028292400360107422	0.9380869750976563	-0.04690140151977539	-0.025427099227905273	0.9575399780273437	-0.05587189865112305	-0.021414400100708008	0.9934409790039063	-0.017099100112915037	0.012389900207519532	0.9064089965820312	-0.02769650077819824	0.009725769996643067	0.9287930297851562	-0.03992620086669922	0.006408060073852539	0.9539390258789062	-0.05053779983520508	0.0011964399814605711	0.9902459716796875	-0.009117930412292481	0.030122800827026366	0.92410498046875	-0.01991510009765625	0.028335399627685547	0.9449949951171875	-0.031210500717163085	0.02577359962463379	0.9674669799804687	-0.041026199340820316	0.018746000289916992	0.9978319702148437	0.00225760006904602	0.06213570022583008	0.9693270263671875	-0.008649160385131836	0.0535447998046875	0.9826430053710937	-0.01827980041503906	0.045556900024414065	0.994218017578125	-0.03214870071411133	0.03184090042114258	1.01152001953125	-0.07412660217285157	0.01210420036315918	1.0647900390625
33	1.1	-0.04513000106811523	-0.08546920013427735	0.9976190185546875	-0.04852429962158203	-0.06543779754638672	1.0144500122070312	-0.0601598014831543	-0.0483760986328125	1.0351800537109375	-0.06011180114746094	-0.01816069984436035	1.0519200439453125	-0.020079099655151367	-0.031565500259399415	0.921135009765625	-0.03424069976806641	-0.028417400360107422	0.9380770263671875	-0.046582801818847656	-0.025567800521850585	0.9574860229492187	-0.0556609001159668	-0.021585300445556642	0.9934329833984376	-0.01659189987182617	0.012221699714660644	0.9064869995117187	-0.027301599502563476	0.009579790115356446	0.9287969970703125	-0.039672901153564456	0.0062579398155212405	0.9538930053710938	-0.05044699859619141	0.001041919946670532	0.9903179931640625	-0.008874380111694335	0.029968399047851563	0.9240659790039063	-0.019669700622558593	0.028195199966430665	0.94493798828125	-0.030950300216674803	0.025636600494384765	0.96735498046875	-0.040969398498535155	0.018622900009155275	0.9977459716796875	0.0023016700744628903	0.06204180145263672	0.9691380004882812	-0.008620579719543458	0.05343560028076172	0.9824929809570313	-0.018240100860595704	0.04543109893798828	0.9940969848632812	-0.03207170104980469	0.03173110008239746	1.0114500122070313	-0.07403630065917968	0.011897899627685548	1.064760009765625
34	1.1333333333333333	-0.044913501739501954	-0.08574520111083984	0.9977479858398437	-0.04836109924316406	-0.06565779876708984	1.014510009765625	-0.05996500015258789	-0.04859370040893555	1.035199951171875	-0.05997499847412109	-0.018327800750732422	1.05193994140625	-0.019892799377441407	-0.031958999633789065	0.921135986328125	-0.034106201171875	-0.028756799697875975	0.9380670166015626	-0.046447898864746096	-0.025869300842285156	0.9574910278320312	-0.0554911994934082	-0.021805099487304688	0.9932069702148437	-0.01605699920654297	0.011748100280761719	0.9065659790039062	-0.026905500411987304	0.009199810028076173	0.9288060302734376	-0.03939889907836914	0.005925419807434082	0.9538709716796875	-0.05038290023803711	0.0008104760050773621	0.990302978515625	-0.008504260063171386	0.029510799407958983	0.92402001953125	-0.019414899826049804	0.027818399429321287	0.9448880004882813	-0.03077549934387207	0.025356800079345702	0.967301025390625	-0.040878299713134766	0.018429399490356446	0.99764697265625	0.002352900028228759	0.06180709838867188	0.9689569702148437	-0.008554100036621094	0.05322200012207031	0.9823419799804688	-0.01813909912109375	0.045237098693847656	0.9939730224609375	-0.03198159980773926	0.03155780029296875	1.0113599853515625	-0.07383070373535157	0.011740300178527832	1.0646099853515625
35	1.1666666666666667	-0.04485580062866211	-0.08607559967041016	0.9976439819335937	-0.04830139923095703	-0.06596230316162109	1.0143900146484375	-0.05990729904174805	-0.048902698516845707	1.0350699462890625	-0.059945598602294925	-0.018623800277709962	1.0518599853515624	-0.01950480079650879	-0.03225320053100586	0.9212059936523438	-0.033796501159667966	-0.02905970001220703	0.9379840087890625	-0.04619729995727539	-0.0261781005859375	0.9573629760742187	-0.05528329849243164	-0.022075199127197267	0.9930089721679688	-0.015102999687194824	0.011350099563598632	0.9067760009765625	-0.026252099990844727	0.008869580268859863	0.9288679809570313	-0.039012699127197265	0.0056817798614501955	0.953822021484375	-0.050169498443603515	0.0005724909901618951	0.9901400146484375	-0.008026639938354492	0.02917140007019043	0.9240640258789062	-0.01900760078430176	0.027512500762939453	0.9448800048828125	-0.030507200241088866	0.02508919906616211	0.9672039794921875	-0.0407338981628418	0.018179500579833984	0.9975659790039062	0.002486969947814941	0.0614989013671875	0.96889599609375	-0.00846193027496338	0.05293330001831055	0.9822230224609375	-0.01806800079345703	0.04497420120239258	0.9938560180664062	-0.03187649917602539	0.0313075008392334	1.0112899780273437	-0.07375189971923828	0.01148840045928955	1.064550048828125
36	1.2	-0.04469720077514648	-0.08646859741210937	0.99747802734375	-0.048142200469970704	-0.06642489624023437	1.0142000122070312	-0.059817798614501955	-0.04934349822998047	1.0348499755859375	-0.05984999847412109	-0.019068599700927735	1.0516099853515626	-0.019401899337768556	-0.032646900177001954	0.9210579833984375	-0.033699298858642576	-0.029482500076293945	0.9378679809570313	-0.04624319839477539	-0.026611799240112304	0.9571900024414063	-0.055299301147460934	-0.022486799240112303	0.992780029296875	-0.014798000335693359	0.01088230037689209	0.9067329711914063	-0.026104000091552733	0.008429539680480958	0.928781982421875	-0.03899449920654297	0.005240660190582275	0.953593017578125	-0.050141899108886716	0.000140724003314971	0.9898510131835937	-0.007731599807739258	0.02879330062866211	0.9239520263671875	-0.018796600341796876	0.02714699935913086	0.9447219848632813	-0.030430500030517577	0.02470199966430664	0.96702001953125	-0.040681400299072266	0.0177672004699707	0.99731201171875	0.0028063299655914304	0.06092919921875	0.9688679809570313	-0.008165220260620117	0.05241130065917969	0.9821259765625	-0.01786829948425293	0.04447100067138672	0.9937260131835938	-0.03180529975891113	0.030840099334716795	1.0110499877929688	-0.07374810028076172	0.011012299537658692	1.064300048828125
